<svg xmlns="http://www.w3.org/2000/svg" width="1010" height="1048" viewBox="0 0 1010 1048">
  <metadata><?xpacket begin="﻿" id="W5M0MpCehiHzreSzNTczkc9d"?>
<x:xmpmeta xmlns:x="adobe:ns:meta/" x:xmptk="Adobe XMP Core 5.6-c138 79.159824, 2016/09/14-01:09:01        ">
   <rdf:RDF xmlns:rdf="http://www.w3.org/1999/02/22-rdf-syntax-ns#">
      <rdf:Description rdf:about=""/>
   </rdf:RDF>
</x:xmpmeta>
                                                                                                    
                                                                                                    
                                                                                                    
                                                                                                    
                                                                                                    
                                                                                                    
                                                                                                    
                                                                                                    
                                                                                                    
                                                                                                    
                                                                                                    
                                                                                                    
                                                                                                    
                                                                                                    
                                                                                                    
                                                                                                    
                                                                                                    
                                                                                                    
                                                                                                    
                                                                                                    
                           
<?xpacket end="w"?></metadata>
<defs>
    <style>
      .cls-1 {
        fill: #004957;
        fill-rule: evenodd;
      }
    </style>
  </defs>
  <path id="concord" class="cls-1" d="M79,5L462,6l1,275L79,275"/>
  <path id="medford" class="cls-1" d="M468,6H773L747,286l-40,59-32,5L547,332l-54-49-24-1"/>
  <path id="salem" class="cls-1" d="M753,276l22-34h229l1-238L781,5Z"/>
  <path id="boston_airport" class="cls-1" d="M1003,249l-225,1L709,353l-34,5-19,34L756,539h248Z"/>
  <path id="cacmbridge" class="cls-1" d="M669,357L546,339l-58-50-25-1L320,394h20l26,14,8,34,33,27,114-4,54-53,76-21Z"/>
  <path id="boston" class="cls-1" d="M652,396l-74,20-55,56-120,4-33-28-10-36-25-12-24,1-20,28-2,92,27,50,307-5,35-26,92-1Z"/>
  <path id="weston" class="cls-1" d="M451,289L81,283l1,249h24l37,11,28,23s121.925,9.549,137,6c-4.268-3.549-26-49-26-49l3-95,22-33Z"/>
  <path id="natick" class="cls-1" d="M82,540l23-2,34,10,32,22s127.062,10.842,138,7c-2.131,4.525-12,40-12,40l63,46,2,31-7,25,7,24,34-1,19,49-18,32,2,33,19,45,4,10,5,82-5,48H1L2,613H78Z"/>
  <path id="south_boston" class="cls-1" d="M315,576l310-7,34-26,94-2,1,143-169,4,3,16-4,26,4,16,25,30,8,13,1,125-197-1-15-39-9-25,2-29,15-26-24-56-25,3-10-22,5-38V665l-67-46Z"/>
  <path id="quincy" class="cls-1" d="M1003,542l-247,1-4,146H588l2,24,1,18-2,9,4,10s28.33,33.523,32,34c-1.035,3.615-1,128-1,128l384,3Z"/>
</svg>
